<svg xmlns="http://www.w3.org/2000/svg" viewBox="0 0 512 512" width="512" height="512">
  <defs><linearGradient id="g" x1="0" y1="0" x2="0" y2="1">
    <stop offset="0" stop-color="#10a99b" /><stop offset="1" stop-color="#0b7d72" />
  </linearGradient></defs>
  <rect width="512" height="512" rx="112" ry="112" fill="url(#g)" /><g transform="translate(0 0) scale(1)">
    <ellipse cx="148" cy="244" rx="54" ry="104" fill="#a6431a" transform="rotate(18 148 244)" />
    <ellipse cx="364" cy="244" rx="54" ry="104" fill="#a6431a" transform="rotate(-18 364 244)" />
    <path fill="#c25a23" d="M256 142
      C 198 142, 166 174, 160 226
      C 156 264, 168 300, 198 326
      C 216 344, 234 366, 256 392
      C 278 366, 296 344, 314 326
      C 344 300, 356 264, 352 226
      C 346 174, 314 142, 256 142 Z" />
    <path fill="#fbf7f1" d="M242 168
      C 236 230, 232 286, 238 332
      L 274 332
      C 280 286, 276 230, 270 168 Z" />
    <ellipse cx="256" cy="352" rx="48" ry="36" fill="#fbf7f1" />
    <ellipse cx="256" cy="332" rx="27" ry="21" fill="#2a2622" />
    <ellipse cx="206" cy="250" rx="17" ry="14" fill="#2a2622" />
    <ellipse cx="306" cy="250" rx="17" ry="14" fill="#2a2622" />
    <circle cx="211" cy="245" r="4.5" fill="#ffffff" />
    <circle cx="311" cy="245" r="4.5" fill="#ffffff" />
  </g>
</svg>
